<?xml version="1.0" encoding="UTF-8"?>
<svg xmlns="http://www.w3.org/2000/svg" xmlns:xlink="http://www.w3.org/1999/xlink" width="173px" height="55px" viewBox="0 0 173 55" version="1.1">
<defs>
<radialGradient id="radial0" gradientUnits="userSpaceOnUse" cx="291.7291" cy="-80.5649" fx="291.7291" fy="-80.5649" r="151.3593" gradientTransform="matrix(0.125074,0,0,-0.12007,-15.467158,9.979889)">
<stop offset="0.58" style="stop-color:rgb(96.470588%,63.137255%,9.019608%);stop-opacity:1;"/>
<stop offset="0.7017" style="stop-color:rgb(96.470588%,62.352941%,9.019608%);stop-opacity:1;"/>
<stop offset="0.7832" style="stop-color:rgb(95.686275%,59.607843%,9.411765%);stop-opacity:1;"/>
<stop offset="0.8531" style="stop-color:rgb(94.901961%,54.509804%,10.196078%);stop-opacity:1;"/>
<stop offset="0.9163" style="stop-color:rgb(93.72549%,47.45098%,10.980392%);stop-opacity:1;"/>
<stop offset="0.9745" style="stop-color:rgb(92.156863%,38.039216%,11.372549%);stop-opacity:1;"/>
<stop offset="1" style="stop-color:rgb(91.372549%,32.156863%,11.372549%);stop-opacity:1;"/>
</radialGradient>
<linearGradient id="linear0" gradientUnits="userSpaceOnUse" x1="47.6434" y1="114.7469" x2="166.456" y2="252.147" gradientTransform="matrix(0.224429,0,0,-0.21545,0.10722,55.586023)">
<stop offset="0.0961" style="stop-color:rgb(91.372549%,32.156863%,11.372549%);stop-opacity:1;"/>
<stop offset="1" style="stop-color:rgb(96.470588%,63.137255%,9.019608%);stop-opacity:1;"/>
</linearGradient>
<linearGradient id="linear1" gradientUnits="userSpaceOnUse" x1="55.2105" y1="129.1727" x2="137.8543" y2="221.7486" gradientTransform="matrix(0.224429,0,0,-0.21545,0.10722,55.586023)">
<stop offset="0" style="stop-color:rgb(91.372549%,32.156863%,11.372549%);stop-opacity:1;"/>
<stop offset="1" style="stop-color:rgb(96.470588%,63.137255%,9.019608%);stop-opacity:1;"/>
</linearGradient>
<linearGradient id="linear2" gradientUnits="userSpaceOnUse" x1="121.0537" y1="97.0745" x2="122.4339" y2="249.3482" gradientTransform="matrix(0.224429,0,0,-0.21545,0.10722,55.586023)">
<stop offset="0" style="stop-color:rgb(72.54902%,28.235294%,9.019608%);stop-opacity:1;"/>
<stop offset="1" style="stop-color:rgb(96.470588%,63.137255%,9.019608%);stop-opacity:1;"/>
</linearGradient>
</defs>
<g id="surface1">
<path style=" stroke:none;fill-rule:nonzero;fill:rgb(43.921569%,43.529412%,43.529412%);fill-opacity:1;" d="M 62.898438 43.390625 C 62.921875 43.347656 62.933594 43.300781 62.941406 43.242188 C 62.953125 43.183594 62.960938 43.109375 62.960938 43.023438 C 62.960938 42.945312 62.953125 42.871094 62.941406 42.808594 C 62.933594 42.746094 62.921875 42.699219 62.898438 42.65625 C 62.878906 42.617188 62.851562 42.585938 62.824219 42.574219 C 62.792969 42.558594 62.761719 42.546875 62.71875 42.546875 L 56.617188 42.546875 C 56.582031 42.546875 56.550781 42.558594 56.523438 42.574219 C 56.488281 42.585938 56.464844 42.617188 56.449219 42.65625 C 56.429688 42.699219 56.417969 42.746094 56.40625 42.808594 C 56.394531 42.871094 56.386719 42.945312 56.386719 43.023438 C 56.386719 43.109375 56.394531 43.183594 56.40625 43.242188 C 56.417969 43.304688 56.433594 43.347656 56.449219 43.390625 C 56.464844 43.425781 56.488281 43.453125 56.523438 43.472656 C 56.550781 43.488281 56.582031 43.496094 56.617188 43.496094 L 59.085938 43.496094 L 59.085938 50.808594 C 59.085938 50.84375 59.097656 50.871094 59.113281 50.898438 C 59.132812 50.925781 59.167969 50.941406 59.207031 50.957031 C 59.253906 50.976562 59.316406 50.988281 59.390625 51 C 59.472656 51.007812 59.566406 51.015625 59.671875 51.015625 C 59.785156 51.015625 59.878906 51.007812 59.953125 51 C 60.027344 50.988281 60.089844 50.976562 60.128906 50.957031 C 60.175781 50.941406 60.207031 50.925781 60.222656 50.898438 C 60.246094 50.871094 60.25 50.84375 60.25 50.808594 L 60.25 43.496094 L 62.71875 43.496094 C 62.757812 43.496094 62.792969 43.492188 62.820312 43.472656 C 62.851562 43.453125 62.878906 43.425781 62.898438 43.390625 Z M 62.898438 43.390625 "/>
<path style=" stroke:none;fill-rule:nonzero;fill:rgb(43.921569%,43.529412%,43.529412%);fill-opacity:1;" d="M 67.789062 45.472656 C 67.570312 45.226562 67.292969 45.023438 66.960938 44.878906 C 66.621094 44.726562 66.210938 44.65625 65.734375 44.65625 C 65.285156 44.65625 64.878906 44.730469 64.515625 44.878906 C 64.15625 45.027344 63.84375 45.238281 63.59375 45.523438 C 63.335938 45.800781 63.140625 46.148438 63.003906 46.546875 C 62.867188 46.949219 62.804688 47.402344 62.804688 47.90625 C 62.804688 48.433594 62.863281 48.902344 63 49.300781 C 63.125 49.695312 63.320312 50.03125 63.582031 50.296875 C 63.84375 50.558594 64.160156 50.761719 64.535156 50.894531 C 64.910156 51.03125 65.351562 51.097656 65.855469 51.097656 C 66.144531 51.097656 66.417969 51.078125 66.671875 51.035156 C 66.929688 50.992188 67.152344 50.949219 67.351562 50.894531 C 67.542969 50.84375 67.699219 50.792969 67.824219 50.734375 C 67.949219 50.683594 68.015625 50.644531 68.046875 50.617188 C 68.070312 50.59375 68.085938 50.566406 68.101562 50.542969 C 68.117188 50.515625 68.128906 50.488281 68.136719 50.457031 C 68.144531 50.421875 68.148438 50.386719 68.148438 50.339844 C 68.15625 50.300781 68.160156 50.25 68.160156 50.195312 C 68.160156 50.117188 68.152344 50.050781 68.148438 50 C 68.144531 49.945312 68.132812 49.898438 68.117188 49.871094 C 68.101562 49.835938 68.085938 49.8125 68.058594 49.800781 C 68.039062 49.785156 68.007812 49.78125 67.976562 49.78125 C 67.917969 49.78125 67.839844 49.800781 67.738281 49.847656 C 67.625 49.894531 67.488281 49.945312 67.320312 50 C 67.160156 50.058594 66.960938 50.105469 66.734375 50.148438 C 66.511719 50.195312 66.25 50.21875 65.960938 50.21875 C 65.585938 50.21875 65.277344 50.171875 65.023438 50.070312 C 64.773438 49.972656 64.5625 49.828125 64.402344 49.640625 C 64.242188 49.453125 64.132812 49.230469 64.058594 48.972656 C 63.996094 48.707031 63.957031 48.417969 63.957031 48.09375 L 67.980469 48.09375 C 68.09375 48.09375 68.195312 48.054688 68.28125 47.984375 C 68.375 47.914062 68.417969 47.792969 68.417969 47.625 L 68.417969 47.425781 C 68.417969 47.046875 68.359375 46.6875 68.265625 46.351562 C 68.164062 46.015625 68.007812 45.71875 67.789062 45.472656 Z M 63.960938 47.304688 C 63.972656 47.066406 64.019531 46.84375 64.09375 46.617188 C 64.171875 46.398438 64.28125 46.210938 64.421875 46.042969 C 64.5625 45.878906 64.734375 45.75 64.945312 45.644531 C 65.15625 45.546875 65.398438 45.496094 65.679688 45.496094 C 66.21875 45.496094 66.628906 45.65625 66.902344 45.976562 C 67.175781 46.296875 67.308594 46.742188 67.296875 47.304688 Z M 63.960938 47.304688 "/>
<path style=" stroke:none;fill-rule:nonzero;fill:rgb(43.921569%,43.529412%,43.529412%);fill-opacity:1;" d="M 74.816406 49.539062 C 74.800781 49.496094 74.785156 49.464844 74.757812 49.449219 C 74.738281 49.433594 74.707031 49.421875 74.679688 49.421875 C 74.628906 49.421875 74.550781 49.460938 74.449219 49.539062 C 74.351562 49.613281 74.230469 49.695312 74.09375 49.789062 C 73.949219 49.882812 73.78125 49.972656 73.585938 50.046875 C 73.390625 50.121094 73.164062 50.164062 72.90625 50.164062 C 72.636719 50.164062 72.394531 50.121094 72.1875 50.023438 C 71.976562 49.933594 71.792969 49.789062 71.648438 49.601562 C 71.507812 49.40625 71.398438 49.171875 71.328125 48.886719 C 71.25 48.601562 71.210938 48.273438 71.210938 47.898438 C 71.210938 47.132812 71.355469 46.5625 71.640625 46.164062 C 71.929688 45.761719 72.34375 45.566406 72.886719 45.566406 C 73.144531 45.566406 73.375 45.601562 73.566406 45.675781 C 73.757812 45.75 73.925781 45.824219 74.054688 45.914062 C 74.195312 46 74.304688 46.082031 74.390625 46.152344 C 74.484375 46.226562 74.5625 46.261719 74.632812 46.261719 C 74.6875 46.261719 74.738281 46.226562 74.777344 46.164062 C 74.816406 46.089844 74.839844 45.976562 74.839844 45.800781 C 74.839844 45.722656 74.832031 45.660156 74.832031 45.609375 C 74.832031 45.554688 74.816406 45.507812 74.804688 45.46875 C 74.792969 45.425781 74.773438 45.390625 74.753906 45.363281 C 74.730469 45.332031 74.695312 45.289062 74.640625 45.234375 C 74.585938 45.1875 74.5 45.125 74.382812 45.046875 C 74.265625 44.976562 74.128906 44.910156 73.96875 44.851562 C 73.816406 44.796875 73.648438 44.75 73.46875 44.714844 C 73.28125 44.683594 73.09375 44.664062 72.902344 44.664062 C 72.5 44.664062 72.125 44.726562 71.777344 44.855469 C 71.433594 44.980469 71.128906 45.179688 70.875 45.441406 C 70.621094 45.707031 70.417969 46.046875 70.269531 46.460938 C 70.125 46.878906 70.050781 47.375 70.050781 47.953125 C 70.050781 48.457031 70.113281 48.910156 70.230469 49.296875 C 70.347656 49.683594 70.523438 50.011719 70.753906 50.28125 C 70.984375 50.546875 71.265625 50.75 71.601562 50.886719 C 71.945312 51.027344 72.332031 51.097656 72.773438 51.097656 C 72.984375 51.097656 73.1875 51.078125 73.386719 51.039062 C 73.585938 51 73.773438 50.949219 73.945312 50.886719 C 74.109375 50.824219 74.261719 50.753906 74.398438 50.671875 C 74.53125 50.59375 74.632812 50.523438 74.6875 50.472656 C 74.742188 50.417969 74.777344 50.375 74.792969 50.34375 C 74.804688 50.316406 74.820312 50.285156 74.832031 50.246094 C 74.84375 50.207031 74.851562 50.167969 74.855469 50.109375 C 74.863281 50.058594 74.863281 49.992188 74.863281 49.917969 C 74.863281 49.828125 74.863281 49.757812 74.851562 49.695312 C 74.84375 49.632812 74.832031 49.578125 74.816406 49.539062 Z M 74.816406 49.539062 "/>
<path style=" stroke:none;fill-rule:nonzero;fill:rgb(43.921569%,43.529412%,43.529412%);fill-opacity:1;" d="M 81.472656 45.382812 C 81.296875 45.164062 81.070312 44.984375 80.792969 44.855469 C 80.515625 44.722656 80.175781 44.65625 79.765625 44.65625 C 79.417969 44.65625 79.070312 44.742188 78.730469 44.914062 C 78.390625 45.085938 78.046875 45.355469 77.703125 45.71875 L 77.703125 44.945312 C 77.703125 44.914062 77.695312 44.882812 77.679688 44.859375 C 77.664062 44.835938 77.636719 44.816406 77.597656 44.796875 C 77.5625 44.777344 77.511719 44.765625 77.449219 44.757812 C 77.378906 44.75 77.300781 44.75 77.199219 44.75 C 77.09375 44.75 77.011719 44.75 76.949219 44.757812 C 76.882812 44.765625 76.835938 44.777344 76.792969 44.796875 C 76.753906 44.816406 76.726562 44.835938 76.710938 44.859375 C 76.699219 44.882812 76.6875 44.914062 76.6875 44.945312 L 76.6875 50.8125 C 76.6875 50.847656 76.699219 50.875 76.714844 50.898438 C 76.730469 50.925781 76.761719 50.945312 76.804688 50.960938 C 76.84375 50.980469 76.902344 50.992188 76.980469 51 C 77.046875 51.007812 77.140625 51.015625 77.246094 51.015625 C 77.359375 51.015625 77.453125 51.007812 77.527344 51 C 77.597656 50.992188 77.652344 50.976562 77.695312 50.960938 C 77.738281 50.945312 77.765625 50.925781 77.785156 50.898438 C 77.800781 50.875 77.808594 50.847656 77.808594 50.8125 L 77.808594 46.714844 C 78.117188 46.34375 78.414062 46.066406 78.691406 45.875 C 78.972656 45.683594 79.25 45.589844 79.535156 45.589844 C 79.75 45.589844 79.9375 45.625 80.105469 45.707031 C 80.269531 45.78125 80.40625 45.898438 80.511719 46.042969 C 80.613281 46.191406 80.691406 46.367188 80.746094 46.570312 C 80.804688 46.777344 80.828125 47.042969 80.828125 47.378906 L 80.828125 50.816406 C 80.828125 50.847656 80.835938 50.875 80.855469 50.898438 C 80.871094 50.929688 80.902344 50.949219 80.945312 50.964844 C 80.984375 50.980469 81.039062 50.992188 81.117188 51.003906 C 81.183594 51.011719 81.277344 51.015625 81.394531 51.015625 C 81.5 51.015625 81.59375 51.011719 81.664062 51.003906 C 81.734375 50.992188 81.789062 50.980469 81.832031 50.964844 C 81.871094 50.949219 81.898438 50.929688 81.917969 50.898438 C 81.9375 50.875 81.945312 50.847656 81.945312 50.816406 L 81.945312 47.238281 C 81.945312 46.820312 81.910156 46.464844 81.835938 46.167969 C 81.765625 45.871094 81.648438 45.609375 81.472656 45.382812 Z M 81.472656 45.382812 "/>
<path style=" stroke:none;fill-rule:nonzero;fill:rgb(43.921569%,43.529412%,43.529412%);fill-opacity:1;" d="M 89.273438 45.496094 C 89.027344 45.222656 88.714844 45.015625 88.34375 44.871094 C 87.96875 44.726562 87.535156 44.660156 87.03125 44.660156 C 86.511719 44.660156 86.058594 44.738281 85.667969 44.898438 C 85.277344 45.058594 84.949219 45.285156 84.691406 45.574219 C 84.429688 45.863281 84.238281 46.210938 84.109375 46.613281 C 83.980469 47.011719 83.917969 47.453125 83.917969 47.933594 C 83.917969 48.425781 83.976562 48.871094 84.101562 49.261719 C 84.222656 49.65625 84.40625 49.988281 84.65625 50.257812 C 84.90625 50.53125 85.214844 50.742188 85.589844 50.886719 C 85.960938 51.027344 86.398438 51.097656 86.902344 51.097656 C 87.417969 51.097656 87.871094 51.019531 88.261719 50.855469 C 88.652344 50.691406 88.980469 50.460938 89.238281 50.167969 C 89.5 49.878906 89.695312 49.535156 89.828125 49.132812 C 89.960938 48.734375 90.023438 48.292969 90.023438 47.816406 C 90.023438 47.324219 89.960938 46.882812 89.832031 46.492188 C 89.710938 46.101562 89.527344 45.769531 89.273438 45.496094 Z M 88.753906 48.816406 C 88.679688 49.101562 88.5625 49.34375 88.410156 49.550781 C 88.253906 49.75 88.054688 49.910156 87.8125 50.023438 C 87.570312 50.136719 87.285156 50.191406 86.957031 50.191406 C 86.597656 50.191406 86.292969 50.128906 86.058594 50.007812 C 85.808594 49.886719 85.617188 49.714844 85.476562 49.507812 C 85.332031 49.296875 85.230469 49.050781 85.167969 48.761719 C 85.105469 48.484375 85.074219 48.179688 85.074219 47.863281 C 85.074219 47.527344 85.113281 47.21875 85.1875 46.9375 C 85.265625 46.65625 85.378906 46.410156 85.535156 46.207031 C 85.691406 45.996094 85.886719 45.839844 86.125 45.71875 C 86.367188 45.609375 86.652344 45.550781 86.988281 45.550781 C 87.34375 45.550781 87.648438 45.613281 87.890625 45.738281 C 88.128906 45.863281 88.320312 46.03125 88.460938 46.242188 C 88.605469 46.457031 88.703125 46.707031 88.769531 46.984375 C 88.828125 47.265625 88.863281 47.566406 88.863281 47.886719 C 88.863281 48.226562 88.828125 48.535156 88.753906 48.816406 Z M 88.753906 48.816406 "/>
<path style=" stroke:none;fill-rule:nonzero;fill:rgb(43.921569%,43.529412%,43.529412%);fill-opacity:1;" d="M 93.023438 41.953125 C 92.976562 41.933594 92.925781 41.921875 92.851562 41.914062 C 92.777344 41.90625 92.683594 41.90625 92.574219 41.90625 C 92.460938 41.90625 92.375 41.90625 92.304688 41.914062 C 92.230469 41.921875 92.171875 41.9375 92.128906 41.953125 C 92.085938 41.972656 92.058594 41.992188 92.042969 42.015625 C 92.023438 42.042969 92.019531 42.078125 92.019531 42.109375 L 92.019531 50.8125 C 92.019531 50.847656 92.023438 50.875 92.042969 50.898438 C 92.058594 50.925781 92.085938 50.945312 92.128906 50.960938 C 92.171875 50.980469 92.234375 50.992188 92.304688 51 C 92.375 51.007812 92.460938 51.015625 92.574219 51.015625 C 92.683594 51.015625 92.777344 51.007812 92.851562 51 C 92.925781 50.992188 92.976562 50.976562 93.023438 50.960938 C 93.0625 50.945312 93.089844 50.925781 93.109375 50.898438 C 93.128906 50.875 93.136719 50.847656 93.136719 50.8125 L 93.136719 42.109375 C 93.136719 42.074219 93.128906 42.042969 93.109375 42.015625 C 93.089844 41.992188 93.0625 41.972656 93.023438 41.953125 Z M 93.023438 41.953125 "/>
<path style=" stroke:none;fill-rule:nonzero;fill:rgb(43.921569%,43.529412%,43.529412%);fill-opacity:1;" d="M 100.488281 45.496094 C 100.238281 45.222656 99.925781 45.015625 99.550781 44.871094 C 99.179688 44.726562 98.742188 44.660156 98.238281 44.660156 C 97.71875 44.660156 97.261719 44.738281 96.875 44.898438 C 96.488281 45.058594 96.164062 45.285156 95.902344 45.574219 C 95.644531 45.863281 95.453125 46.210938 95.316406 46.613281 C 95.191406 47.011719 95.125 47.453125 95.125 47.933594 C 95.125 48.425781 95.183594 48.871094 95.308594 49.261719 C 95.433594 49.65625 95.617188 49.988281 95.867188 50.257812 C 96.113281 50.53125 96.421875 50.742188 96.796875 50.886719 C 97.171875 51.027344 97.609375 51.097656 98.109375 51.097656 C 98.628906 51.097656 99.082031 51.019531 99.472656 50.855469 C 99.863281 50.691406 100.191406 50.460938 100.453125 50.167969 C 100.710938 49.878906 100.90625 49.535156 101.039062 49.132812 C 101.167969 48.734375 101.234375 48.292969 101.234375 47.816406 C 101.234375 47.324219 101.167969 46.882812 101.046875 46.492188 C 100.925781 46.101562 100.738281 45.769531 100.488281 45.496094 Z M 99.964844 48.816406 C 99.890625 49.101562 99.78125 49.34375 99.621094 49.550781 C 99.464844 49.75 99.265625 49.910156 99.027344 50.023438 C 98.785156 50.136719 98.5 50.191406 98.167969 50.191406 C 97.808594 50.191406 97.507812 50.128906 97.265625 50.007812 C 97.027344 49.886719 96.832031 49.714844 96.691406 49.507812 C 96.546875 49.296875 96.441406 49.050781 96.378906 48.761719 C 96.316406 48.484375 96.289062 48.179688 96.289062 47.863281 C 96.289062 47.527344 96.328125 47.21875 96.402344 46.9375 C 96.480469 46.65625 96.59375 46.410156 96.75 46.207031 C 96.902344 45.996094 97.097656 45.839844 97.339844 45.71875 C 97.582031 45.609375 97.871094 45.550781 98.199219 45.550781 C 98.5625 45.550781 98.859375 45.613281 99.101562 45.738281 C 99.34375 45.863281 99.535156 46.03125 99.675781 46.242188 C 99.820312 46.457031 99.917969 46.707031 99.984375 46.984375 C 100.042969 47.265625 100.074219 47.566406 100.074219 47.886719 C 100.074219 48.226562 100.035156 48.535156 99.964844 48.816406 Z M 99.964844 48.816406 "/>
<path style=" stroke:none;fill-rule:nonzero;fill:rgb(43.921569%,43.529412%,43.529412%);fill-opacity:1;" d="M 108.101562 44.78125 L 106.253906 44.78125 C 106.117188 44.746094 105.964844 44.722656 105.804688 44.695312 C 105.644531 44.683594 105.46875 44.667969 105.285156 44.667969 C 104.941406 44.667969 104.625 44.722656 104.328125 44.816406 C 104.039062 44.914062 103.789062 45.050781 103.582031 45.234375 C 103.375 45.417969 103.210938 45.648438 103.09375 45.910156 C 102.972656 46.175781 102.914062 46.46875 102.914062 46.804688 C 102.914062 47.089844 102.953125 47.335938 103.035156 47.539062 C 103.121094 47.742188 103.230469 47.925781 103.367188 48.085938 C 103.203125 48.246094 103.0625 48.433594 102.945312 48.644531 C 102.835938 48.847656 102.777344 49.085938 102.777344 49.355469 C 102.777344 49.546875 102.832031 49.726562 102.9375 49.886719 C 103.042969 50.054688 103.207031 50.1875 103.425781 50.300781 C 103.285156 50.40625 103.160156 50.519531 103.046875 50.625 C 102.9375 50.738281 102.839844 50.855469 102.769531 50.976562 C 102.695312 51.097656 102.636719 51.226562 102.605469 51.359375 C 102.566406 51.496094 102.550781 51.632812 102.550781 51.773438 C 102.550781 52 102.597656 52.210938 102.699219 52.40625 C 102.792969 52.597656 102.957031 52.765625 103.175781 52.902344 C 103.398438 53.039062 103.6875 53.152344 104.027344 53.230469 C 104.375 53.3125 104.796875 53.351562 105.289062 53.351562 C 105.800781 53.351562 106.242188 53.296875 106.625 53.191406 C 106.992188 53.085938 107.304688 52.9375 107.546875 52.757812 C 107.789062 52.570312 107.96875 52.355469 108.085938 52.113281 C 108.203125 51.871094 108.257812 51.617188 108.257812 51.34375 C 108.257812 51.089844 108.207031 50.863281 108.105469 50.671875 C 108 50.476562 107.859375 50.3125 107.671875 50.179688 C 107.484375 50.050781 107.261719 49.949219 107.015625 49.875 C 106.757812 49.804688 106.480469 49.765625 106.179688 49.757812 L 104.582031 49.695312 C 104.335938 49.683594 104.144531 49.628906 103.996094 49.53125 C 103.847656 49.429688 103.777344 49.300781 103.777344 49.152344 C 103.777344 49.019531 103.800781 48.910156 103.855469 48.804688 C 103.902344 48.707031 103.96875 48.617188 104.054688 48.539062 C 104.175781 48.636719 104.351562 48.714844 104.570312 48.777344 C 104.796875 48.839844 105.03125 48.871094 105.28125 48.871094 C 105.632812 48.871094 105.953125 48.820312 106.242188 48.726562 C 106.535156 48.628906 106.78125 48.496094 106.992188 48.316406 C 107.207031 48.132812 107.367188 47.910156 107.480469 47.65625 C 107.59375 47.390625 107.648438 47.09375 107.648438 46.753906 C 107.648438 46.550781 107.617188 46.355469 107.550781 46.167969 C 107.492188 45.976562 107.378906 45.804688 107.21875 45.648438 L 108.09375 45.648438 C 108.160156 45.648438 108.21875 45.621094 108.257812 45.546875 C 108.300781 45.480469 108.324219 45.375 108.324219 45.21875 C 108.324219 45.070312 108.304688 44.964844 108.265625 44.890625 C 108.234375 44.816406 108.175781 44.78125 108.101562 44.78125 Z M 103.792969 51.140625 C 103.847656 51.050781 103.921875 50.957031 104.011719 50.859375 C 104.109375 50.765625 104.222656 50.660156 104.367188 50.550781 L 105.949219 50.605469 C 106.316406 50.609375 106.609375 50.683594 106.820312 50.824219 C 107.035156 50.957031 107.144531 51.152344 107.144531 51.402344 C 107.144531 51.546875 107.113281 51.691406 107.050781 51.824219 C 106.992188 51.960938 106.890625 52.078125 106.75 52.183594 C 106.613281 52.289062 106.429688 52.375 106.199219 52.433594 C 105.96875 52.496094 105.683594 52.527344 105.347656 52.527344 C 104.808594 52.527344 104.398438 52.457031 104.097656 52.308594 C 103.796875 52.164062 103.648438 51.949219 103.648438 51.667969 C 103.648438 51.578125 103.660156 51.484375 103.679688 51.398438 C 103.703125 51.316406 103.742188 51.230469 103.792969 51.140625 Z M 106.503906 47.25 C 106.457031 47.40625 106.375 47.542969 106.265625 47.664062 C 106.160156 47.78125 106.023438 47.875 105.859375 47.941406 C 105.699219 48.007812 105.503906 48.046875 105.285156 48.046875 C 104.871094 48.046875 104.554688 47.933594 104.320312 47.710938 C 104.097656 47.492188 103.980469 47.1875 103.980469 46.796875 C 103.980469 46.625 104.011719 46.457031 104.058594 46.300781 C 104.113281 46.144531 104.191406 46 104.296875 45.878906 C 104.402344 45.757812 104.539062 45.664062 104.699219 45.589844 C 104.855469 45.523438 105.046875 45.488281 105.265625 45.488281 C 105.683594 45.488281 106.011719 45.601562 106.238281 45.828125 C 106.464844 46.046875 106.582031 46.363281 106.582031 46.761719 C 106.582031 46.925781 106.558594 47.089844 106.503906 47.25 Z M 106.503906 47.25 "/>
<path style=" stroke:none;fill-rule:nonzero;fill:rgb(43.921569%,43.529412%,43.529412%);fill-opacity:1;" d="M 111.121094 44.800781 C 111.082031 44.78125 111.023438 44.769531 110.949219 44.765625 C 110.875 44.75 110.785156 44.75 110.671875 44.75 C 110.5625 44.75 110.476562 44.75 110.402344 44.765625 C 110.332031 44.769531 110.269531 44.78125 110.226562 44.800781 C 110.1875 44.816406 110.152344 44.839844 110.140625 44.863281 C 110.125 44.890625 110.121094 44.917969 110.121094 44.945312 L 110.121094 50.8125 C 110.121094 50.847656 110.125 50.875 110.140625 50.898438 C 110.152344 50.925781 110.1875 50.945312 110.226562 50.960938 C 110.273438 50.980469 110.332031 50.992188 110.402344 51 C 110.476562 51.007812 110.5625 51.015625 110.671875 51.015625 C 110.785156 51.015625 110.875 51.007812 110.949219 51 C 111.023438 50.992188 111.082031 50.976562 111.121094 50.960938 C 111.160156 50.945312 111.191406 50.925781 111.207031 50.898438 C 111.226562 50.875 111.234375 50.847656 111.234375 50.8125 L 111.234375 44.945312 C 111.234375 44.917969 111.226562 44.890625 111.207031 44.863281 C 111.191406 44.839844 111.160156 44.816406 111.121094 44.800781 Z M 111.121094 44.800781 "/>
<path style=" stroke:none;fill-rule:nonzero;fill:rgb(43.921569%,43.529412%,43.529412%);fill-opacity:1;" d="M 110.679688 42.332031 C 110.410156 42.332031 110.226562 42.375 110.132812 42.46875 C 110.03125 42.558594 109.980469 42.730469 109.980469 42.984375 C 109.980469 43.230469 110.03125 43.394531 110.125 43.492188 C 110.222656 43.578125 110.402344 43.625 110.664062 43.625 C 110.933594 43.625 111.117188 43.578125 111.214844 43.484375 C 111.3125 43.394531 111.367188 43.222656 111.367188 42.972656 C 111.367188 42.722656 111.316406 42.554688 111.21875 42.46875 C 111.121094 42.375 110.941406 42.332031 110.679688 42.332031 Z M 110.679688 42.332031 "/>
<path style=" stroke:none;fill-rule:nonzero;fill:rgb(43.921569%,43.529412%,43.529412%);fill-opacity:1;" d="M 117.714844 45.222656 C 117.523438 45.035156 117.273438 44.898438 116.964844 44.800781 C 116.660156 44.703125 116.285156 44.65625 115.84375 44.65625 C 115.609375 44.65625 115.378906 44.675781 115.148438 44.71875 C 114.917969 44.757812 114.707031 44.8125 114.507812 44.871094 C 114.316406 44.933594 114.140625 45.003906 113.992188 45.078125 C 113.84375 45.160156 113.734375 45.222656 113.679688 45.277344 C 113.617188 45.335938 113.582031 45.394531 113.5625 45.457031 C 113.550781 45.519531 113.539062 45.605469 113.539062 45.71875 C 113.539062 45.78125 113.546875 45.839844 113.554688 45.894531 C 113.566406 45.949219 113.578125 45.996094 113.597656 46.03125 C 113.617188 46.066406 113.644531 46.089844 113.667969 46.105469 C 113.699219 46.121094 113.726562 46.132812 113.761719 46.132812 C 113.820312 46.132812 113.902344 46.101562 114.011719 46.042969 C 114.121094 45.976562 114.261719 45.90625 114.425781 45.832031 C 114.589844 45.757812 114.785156 45.6875 115 45.621094 C 115.222656 45.5625 115.46875 45.527344 115.746094 45.527344 C 116.003906 45.527344 116.21875 45.558594 116.398438 45.617188 C 116.578125 45.675781 116.714844 45.765625 116.828125 45.882812 C 116.941406 45.992188 117.019531 46.136719 117.066406 46.3125 C 117.121094 46.484375 117.140625 46.6875 117.140625 46.910156 L 117.140625 47.367188 L 116.304688 47.367188 C 115.828125 47.367188 115.402344 47.40625 115.023438 47.488281 C 114.640625 47.570312 114.320312 47.6875 114.058594 47.851562 C 113.796875 48.011719 113.597656 48.214844 113.453125 48.457031 C 113.316406 48.699219 113.25 48.984375 113.25 49.316406 C 113.25 49.597656 113.296875 49.847656 113.398438 50.070312 C 113.503906 50.292969 113.644531 50.476562 113.828125 50.628906 C 114.011719 50.785156 114.234375 50.898438 114.492188 50.980469 C 114.75 51.0625 115.042969 51.101562 115.359375 51.101562 C 115.726562 51.101562 116.078125 51.023438 116.402344 50.875 C 116.730469 50.71875 117.03125 50.507812 117.292969 50.234375 L 117.292969 50.820312 C 117.292969 50.875 117.3125 50.914062 117.34375 50.9375 C 117.371094 50.964844 117.429688 50.980469 117.496094 50.996094 C 117.566406 51.011719 117.660156 51.019531 117.773438 51.019531 C 117.894531 51.019531 117.992188 51.011719 118.054688 50.996094 C 118.117188 50.980469 118.167969 50.964844 118.207031 50.9375 C 118.242188 50.914062 118.261719 50.875 118.261719 50.820312 L 118.261719 46.867188 C 118.261719 46.503906 118.21875 46.1875 118.128906 45.914062 C 118.039062 45.632812 117.898438 45.40625 117.714844 45.222656 Z M 117.136719 49.386719 C 116.867188 49.679688 116.605469 49.898438 116.351562 50.042969 C 116.097656 50.1875 115.824219 50.257812 115.535156 50.257812 C 115.175781 50.257812 114.890625 50.167969 114.6875 49.988281 C 114.488281 49.804688 114.382812 49.566406 114.382812 49.261719 C 114.382812 49.082031 114.421875 48.929688 114.492188 48.789062 C 114.558594 48.65625 114.671875 48.539062 114.820312 48.441406 C 114.964844 48.339844 115.15625 48.265625 115.382812 48.21875 C 115.609375 48.167969 115.882812 48.140625 116.1875 48.140625 L 117.136719 48.140625 Z M 117.136719 49.386719 "/>
<path style=" stroke:none;fill-rule:nonzero;fill:rgb(43.921569%,43.529412%,43.529412%);fill-opacity:1;" d="M 129.101562 50.148438 C 129.074219 50.113281 129.050781 50.085938 129.023438 50.066406 C 128.996094 50.050781 128.964844 50.042969 128.921875 50.042969 L 125.445312 50.042969 L 125.445312 47.03125 L 128.386719 47.03125 C 128.425781 47.03125 128.457031 47.023438 128.488281 47.003906 C 128.515625 46.988281 128.542969 46.964844 128.5625 46.929688 C 128.582031 46.898438 128.597656 46.855469 128.605469 46.796875 C 128.613281 46.738281 128.613281 46.671875 128.613281 46.589844 C 128.613281 46.507812 128.613281 46.441406 128.605469 46.378906 C 128.597656 46.316406 128.582031 46.269531 128.5625 46.234375 C 128.542969 46.199219 128.515625 46.171875 128.488281 46.152344 C 128.457031 46.132812 128.421875 46.125 128.386719 46.125 L 125.445312 46.125 L 125.445312 43.480469 L 128.878906 43.480469 C 128.910156 43.480469 128.949219 43.46875 128.972656 43.453125 C 129 43.433594 129.03125 43.410156 129.042969 43.371094 C 129.0625 43.332031 129.074219 43.285156 129.089844 43.226562 C 129.101562 43.167969 129.109375 43.101562 129.109375 43.019531 C 129.109375 42.933594 129.101562 42.863281 129.089844 42.800781 C 129.074219 42.742188 129.0625 42.695312 129.042969 42.652344 C 129.027344 42.613281 129 42.582031 128.972656 42.570312 C 128.949219 42.554688 128.910156 42.542969 128.878906 42.542969 L 124.710938 42.542969 C 124.605469 42.542969 124.507812 42.578125 124.414062 42.644531 C 124.320312 42.714844 124.273438 42.832031 124.273438 43 L 124.273438 50.515625 C 124.273438 50.683594 124.320312 50.804688 124.414062 50.871094 C 124.503906 50.9375 124.605469 50.972656 124.710938 50.972656 L 128.921875 50.972656 C 128.960938 50.972656 128.996094 50.960938 129.023438 50.945312 C 129.050781 50.929688 129.074219 50.898438 129.101562 50.859375 C 129.121094 50.820312 129.136719 50.769531 129.148438 50.710938 C 129.160156 50.65625 129.160156 50.585938 129.160156 50.507812 C 129.160156 50.425781 129.15625 50.347656 129.148438 50.289062 C 129.136719 50.230469 129.121094 50.183594 129.101562 50.148438 Z M 129.101562 50.148438 "/>
<path style=" stroke:none;fill-rule:nonzero;fill:rgb(43.921569%,43.529412%,43.529412%);fill-opacity:1;" d="M 134.628906 48.097656 C 134.484375 47.964844 134.324219 47.855469 134.132812 47.761719 C 133.945312 47.671875 133.757812 47.589844 133.558594 47.515625 C 133.367188 47.441406 133.183594 47.367188 132.992188 47.300781 C 132.808594 47.230469 132.640625 47.15625 132.496094 47.070312 C 132.351562 46.980469 132.238281 46.882812 132.144531 46.765625 C 132.054688 46.648438 132.007812 46.507812 132.007812 46.339844 C 132.007812 46.21875 132.03125 46.105469 132.085938 46 C 132.128906 45.898438 132.195312 45.804688 132.292969 45.730469 C 132.382812 45.652344 132.503906 45.59375 132.648438 45.550781 C 132.792969 45.507812 132.960938 45.492188 133.148438 45.492188 C 133.363281 45.492188 133.550781 45.519531 133.714844 45.566406 C 133.878906 45.609375 134.023438 45.664062 134.148438 45.714844 C 134.265625 45.773438 134.367188 45.820312 134.445312 45.871094 C 134.523438 45.917969 134.582031 45.941406 134.621094 45.941406 C 134.648438 45.941406 134.671875 45.933594 134.695312 45.917969 C 134.71875 45.902344 134.738281 45.882812 134.753906 45.84375 C 134.769531 45.808594 134.78125 45.765625 134.789062 45.710938 C 134.796875 45.65625 134.796875 45.59375 134.796875 45.519531 C 134.796875 45.445312 134.792969 45.390625 134.789062 45.339844 C 134.78125 45.296875 134.773438 45.253906 134.765625 45.226562 C 134.761719 45.1875 134.75 45.160156 134.734375 45.136719 C 134.71875 45.105469 134.6875 45.078125 134.636719 45.046875 C 134.589844 45.007812 134.523438 44.96875 134.429688 44.921875 C 134.339844 44.878906 134.222656 44.835938 134.097656 44.800781 C 133.960938 44.761719 133.816406 44.726562 133.652344 44.703125 C 133.488281 44.675781 133.328125 44.664062 133.164062 44.664062 C 132.792969 44.664062 132.46875 44.710938 132.191406 44.808594 C 131.914062 44.902344 131.683594 45.03125 131.5 45.1875 C 131.316406 45.347656 131.171875 45.527344 131.078125 45.742188 C 130.988281 45.953125 130.9375 46.171875 130.9375 46.402344 C 130.9375 46.660156 130.984375 46.886719 131.070312 47.074219 C 131.164062 47.257812 131.273438 47.417969 131.421875 47.550781 C 131.566406 47.6875 131.730469 47.800781 131.914062 47.898438 C 132.097656 47.988281 132.285156 48.074219 132.476562 48.148438 C 132.667969 48.21875 132.859375 48.289062 133.035156 48.359375 C 133.21875 48.425781 133.378906 48.503906 133.527344 48.589844 C 133.671875 48.675781 133.785156 48.777344 133.875 48.886719 C 133.960938 49 134.003906 49.140625 134.003906 49.304688 C 134.003906 49.464844 133.972656 49.605469 133.914062 49.722656 C 133.851562 49.839844 133.765625 49.9375 133.652344 50.011719 C 133.542969 50.089844 133.410156 50.140625 133.25 50.183594 C 133.097656 50.222656 132.925781 50.242188 132.738281 50.242188 C 132.484375 50.242188 132.261719 50.210938 132.066406 50.15625 C 131.871094 50.097656 131.703125 50.035156 131.5625 49.960938 C 131.421875 49.890625 131.300781 49.832031 131.199219 49.769531 C 131.105469 49.714844 131.03125 49.683594 130.980469 49.683594 C 130.949219 49.683594 130.917969 49.691406 130.894531 49.707031 C 130.871094 49.71875 130.855469 49.746094 130.839844 49.785156 C 130.824219 49.820312 130.8125 49.863281 130.808594 49.917969 C 130.792969 49.976562 130.792969 50.042969 130.792969 50.128906 C 130.792969 50.265625 130.804688 50.367188 130.824219 50.449219 C 130.851562 50.523438 130.882812 50.585938 130.933594 50.628906 C 130.984375 50.671875 131.0625 50.722656 131.171875 50.777344 C 131.277344 50.832031 131.410156 50.882812 131.570312 50.933594 C 131.722656 50.984375 131.902344 51.023438 132.097656 51.058594 C 132.296875 51.089844 132.503906 51.105469 132.714844 51.105469 C 133.074219 51.105469 133.394531 51.0625 133.6875 50.984375 C 133.980469 50.898438 134.234375 50.777344 134.449219 50.617188 C 134.660156 50.457031 134.824219 50.261719 134.941406 50.023438 C 135.0625 49.792969 135.113281 49.519531 135.113281 49.222656 C 135.113281 48.972656 135.070312 48.753906 134.980469 48.570312 C 134.894531 48.382812 134.773438 48.226562 134.628906 48.097656 Z M 134.628906 48.097656 "/>
<path style=" stroke:none;fill-rule:nonzero;fill:rgb(43.921569%,43.529412%,43.529412%);fill-opacity:1;" d="M 142.113281 45.582031 C 141.917969 45.296875 141.664062 45.070312 141.351562 44.902344 C 141.039062 44.738281 140.660156 44.660156 140.21875 44.660156 C 140.015625 44.660156 139.824219 44.683594 139.636719 44.726562 C 139.453125 44.773438 139.273438 44.835938 139.101562 44.925781 C 138.925781 45.019531 138.753906 45.128906 138.578125 45.265625 C 138.410156 45.402344 138.230469 45.558594 138.046875 45.738281 L 138.046875 44.949219 C 138.046875 44.914062 138.035156 44.878906 138.023438 44.855469 C 138.003906 44.832031 137.976562 44.8125 137.9375 44.796875 C 137.898438 44.773438 137.847656 44.765625 137.789062 44.757812 C 137.722656 44.75 137.644531 44.75 137.550781 44.75 C 137.460938 44.75 137.386719 44.75 137.320312 44.757812 C 137.261719 44.765625 137.207031 44.773438 137.164062 44.796875 C 137.125 44.8125 137.097656 44.832031 137.085938 44.855469 C 137.070312 44.878906 137.066406 44.910156 137.066406 44.949219 L 137.066406 53.136719 C 137.066406 53.171875 137.078125 53.207031 137.085938 53.230469 C 137.105469 53.257812 137.132812 53.277344 137.175781 53.296875 C 137.214844 53.316406 137.277344 53.328125 137.351562 53.335938 C 137.417969 53.34375 137.507812 53.347656 137.621094 53.347656 C 137.734375 53.347656 137.828125 53.34375 137.898438 53.335938 C 137.96875 53.328125 138.027344 53.316406 138.066406 53.296875 C 138.105469 53.277344 138.140625 53.257812 138.15625 53.230469 C 138.171875 53.207031 138.183594 53.171875 138.183594 53.136719 L 138.183594 50.207031 C 138.347656 50.359375 138.5 50.492188 138.644531 50.605469 C 138.789062 50.71875 138.933594 50.808594 139.082031 50.886719 C 139.230469 50.957031 139.378906 51.011719 139.527344 51.046875 C 139.683594 51.082031 139.851562 51.097656 140.03125 51.097656 C 140.460938 51.097656 140.835938 51.023438 141.167969 50.871094 C 141.496094 50.710938 141.773438 50.496094 141.996094 50.207031 C 142.21875 49.925781 142.390625 49.578125 142.507812 49.171875 C 142.621094 48.761719 142.679688 48.300781 142.679688 47.792969 C 142.679688 47.363281 142.636719 46.964844 142.546875 46.585938 C 142.457031 46.199219 142.3125 45.871094 142.113281 45.582031 Z M 141.429688 48.726562 C 141.371094 48.996094 141.285156 49.238281 141.152344 49.457031 C 141.027344 49.667969 140.863281 49.84375 140.664062 49.976562 C 140.460938 50.105469 140.21875 50.167969 139.933594 50.167969 C 139.628906 50.167969 139.335938 50.078125 139.0625 49.882812 C 138.78125 49.695312 138.492188 49.417969 138.179688 49.054688 L 138.179688 46.722656 C 138.359375 46.511719 138.527344 46.332031 138.6875 46.191406 C 138.84375 46.042969 138.996094 45.925781 139.144531 45.839844 C 139.285156 45.75 139.433594 45.683594 139.570312 45.644531 C 139.714844 45.601562 139.855469 45.578125 140 45.578125 C 140.292969 45.578125 140.535156 45.644531 140.730469 45.773438 C 140.929688 45.90625 141.085938 46.078125 141.203125 46.296875 C 141.3125 46.511719 141.398438 46.761719 141.445312 47.042969 C 141.492188 47.320312 141.519531 47.613281 141.519531 47.910156 C 141.523438 48.183594 141.492188 48.457031 141.429688 48.726562 Z M 141.429688 48.726562 "/>
<path style=" stroke:none;fill-rule:nonzero;fill:rgb(43.921569%,43.529412%,43.529412%);fill-opacity:1;" d="M 148.765625 45.222656 C 148.578125 45.035156 148.328125 44.898438 148.023438 44.800781 C 147.714844 44.703125 147.339844 44.65625 146.902344 44.65625 C 146.667969 44.65625 146.433594 44.675781 146.203125 44.71875 C 145.972656 44.757812 145.757812 44.8125 145.566406 44.871094 C 145.371094 44.933594 145.199219 45.003906 145.050781 45.078125 C 144.902344 45.160156 144.796875 45.222656 144.734375 45.277344 C 144.671875 45.335938 144.628906 45.394531 144.617188 45.457031 C 144.609375 45.519531 144.597656 45.605469 144.597656 45.71875 C 144.597656 45.78125 144.601562 45.839844 144.609375 45.894531 C 144.617188 45.949219 144.628906 45.996094 144.652344 46.03125 C 144.671875 46.066406 144.695312 46.089844 144.71875 46.105469 C 144.75 46.121094 144.777344 46.132812 144.820312 46.132812 C 144.871094 46.132812 144.953125 46.101562 145.066406 46.042969 C 145.175781 45.976562 145.3125 45.90625 145.480469 45.832031 C 145.648438 45.757812 145.835938 45.6875 146.054688 45.621094 C 146.269531 45.5625 146.519531 45.527344 146.796875 45.527344 C 147.054688 45.527344 147.269531 45.558594 147.449219 45.617188 C 147.621094 45.675781 147.769531 45.765625 147.878906 45.882812 C 147.988281 45.992188 148.070312 46.136719 148.121094 46.3125 C 148.167969 46.484375 148.195312 46.6875 148.195312 46.910156 L 148.195312 47.367188 L 147.355469 47.367188 C 146.878906 47.367188 146.453125 47.40625 146.070312 47.488281 C 145.691406 47.570312 145.367188 47.6875 145.109375 47.851562 C 144.839844 48.011719 144.640625 48.214844 144.503906 48.457031 C 144.363281 48.699219 144.292969 48.984375 144.292969 49.316406 C 144.292969 49.597656 144.34375 49.847656 144.445312 50.070312 C 144.550781 50.292969 144.691406 50.476562 144.871094 50.628906 C 145.058594 50.785156 145.277344 50.898438 145.542969 50.980469 C 145.800781 51.0625 146.089844 51.101562 146.414062 51.101562 C 146.777344 51.101562 147.128906 51.023438 147.457031 50.875 C 147.777344 50.71875 148.078125 50.507812 148.347656 50.234375 L 148.347656 50.820312 C 148.347656 50.875 148.363281 50.914062 148.398438 50.9375 C 148.429688 50.964844 148.476562 50.980469 148.550781 50.996094 C 148.617188 51.011719 148.710938 51.019531 148.828125 51.019531 C 148.953125 51.019531 149.039062 51.011719 149.109375 50.996094 C 149.171875 50.980469 149.21875 50.964844 149.257812 50.9375 C 149.292969 50.914062 149.3125 50.875 149.3125 50.820312 L 149.3125 46.867188 C 149.3125 46.503906 149.265625 46.1875 149.183594 45.914062 C 149.097656 45.632812 148.957031 45.40625 148.765625 45.222656 Z M 148.199219 49.386719 C 147.921875 49.679688 147.65625 49.898438 147.40625 50.042969 C 147.152344 50.1875 146.886719 50.257812 146.585938 50.257812 C 146.226562 50.257812 145.941406 50.167969 145.742188 49.988281 C 145.542969 49.804688 145.4375 49.566406 145.4375 49.261719 C 145.4375 49.082031 145.480469 48.929688 145.546875 48.789062 C 145.617188 48.65625 145.726562 48.539062 145.878906 48.441406 C 146.023438 48.339844 146.210938 48.265625 146.441406 48.21875 C 146.667969 48.167969 146.933594 48.140625 147.238281 48.140625 L 148.199219 48.140625 Z M 148.199219 49.386719 "/>
<path style=" stroke:none;fill-rule:nonzero;fill:rgb(43.921569%,43.529412%,43.529412%);fill-opacity:1;" d="M 156.0625 49.539062 C 156.042969 49.496094 156.027344 49.464844 155.996094 49.449219 C 155.980469 49.433594 155.949219 49.421875 155.917969 49.421875 C 155.867188 49.421875 155.792969 49.460938 155.695312 49.539062 C 155.597656 49.613281 155.476562 49.695312 155.335938 49.789062 C 155.191406 49.882812 155.023438 49.972656 154.832031 50.046875 C 154.636719 50.121094 154.410156 50.164062 154.152344 50.164062 C 153.875 50.164062 153.636719 50.121094 153.429688 50.023438 C 153.21875 49.933594 153.042969 49.789062 152.898438 49.601562 C 152.753906 49.40625 152.640625 49.171875 152.570312 48.886719 C 152.496094 48.601562 152.457031 48.273438 152.457031 47.898438 C 152.457031 47.132812 152.601562 46.5625 152.886719 46.164062 C 153.175781 45.761719 153.585938 45.566406 154.125 45.566406 C 154.386719 45.566406 154.617188 45.601562 154.808594 45.675781 C 155 45.75 155.164062 45.824219 155.296875 45.914062 C 155.433594 46 155.546875 46.082031 155.632812 46.152344 C 155.726562 46.226562 155.796875 46.261719 155.871094 46.261719 C 155.929688 46.261719 155.980469 46.226562 156.019531 46.164062 C 156.0625 46.089844 156.078125 45.976562 156.078125 45.800781 C 156.078125 45.722656 156.078125 45.660156 156.078125 45.609375 C 156.074219 45.554688 156.0625 45.507812 156.050781 45.46875 C 156.035156 45.425781 156.019531 45.390625 155.992188 45.363281 C 155.972656 45.332031 155.9375 45.289062 155.886719 45.234375 C 155.828125 45.1875 155.742188 45.125 155.621094 45.046875 C 155.507812 44.976562 155.367188 44.910156 155.210938 44.851562 C 155.058594 44.796875 154.890625 44.75 154.707031 44.714844 C 154.523438 44.683594 154.335938 44.664062 154.140625 44.664062 C 153.738281 44.664062 153.363281 44.726562 153.019531 44.855469 C 152.671875 44.980469 152.367188 45.179688 152.117188 45.441406 C 151.859375 45.707031 151.65625 46.046875 151.511719 46.460938 C 151.367188 46.878906 151.292969 47.375 151.292969 47.953125 C 151.292969 48.457031 151.351562 48.910156 151.472656 49.296875 C 151.585938 49.683594 151.765625 50.011719 151.996094 50.28125 C 152.222656 50.546875 152.503906 50.75 152.847656 50.886719 C 153.1875 51.027344 153.574219 51.097656 154.015625 51.097656 C 154.226562 51.097656 154.429688 51.078125 154.632812 51.039062 C 154.832031 51 155.015625 50.949219 155.183594 50.886719 C 155.355469 50.824219 155.511719 50.753906 155.644531 50.671875 C 155.777344 50.59375 155.875 50.523438 155.929688 50.472656 C 155.988281 50.417969 156.023438 50.375 156.039062 50.34375 C 156.0625 50.316406 156.070312 50.285156 156.082031 50.246094 C 156.09375 50.207031 156.101562 50.167969 156.109375 50.109375 C 156.109375 50.058594 156.113281 49.992188 156.113281 49.917969 C 156.113281 49.828125 156.109375 49.757812 156.101562 49.695312 C 156.085938 49.632812 156.074219 49.578125 156.0625 49.539062 Z M 156.0625 49.539062 "/>
<path style=" stroke:none;fill-rule:nonzero;fill:rgb(43.921569%,43.529412%,43.529412%);fill-opacity:1;" d="M 158.945312 44.800781 C 158.898438 44.78125 158.839844 44.769531 158.773438 44.765625 C 158.699219 44.75 158.601562 44.75 158.492188 44.75 C 158.382812 44.75 158.296875 44.75 158.222656 44.765625 C 158.148438 44.769531 158.089844 44.78125 158.050781 44.800781 C 158.003906 44.816406 157.976562 44.839844 157.964844 44.863281 C 157.945312 44.890625 157.9375 44.917969 157.9375 44.945312 L 157.9375 50.8125 C 157.9375 50.847656 157.945312 50.875 157.964844 50.898438 C 157.976562 50.925781 158.003906 50.945312 158.050781 50.960938 C 158.089844 50.980469 158.148438 50.992188 158.222656 51 C 158.292969 51.007812 158.382812 51.015625 158.492188 51.015625 C 158.605469 51.015625 158.699219 51.007812 158.773438 51 C 158.839844 50.992188 158.898438 50.976562 158.945312 50.960938 C 158.984375 50.945312 159.007812 50.925781 159.03125 50.898438 C 159.046875 50.875 159.054688 50.847656 159.054688 50.8125 L 159.054688 44.945312 C 159.054688 44.917969 159.046875 44.890625 159.03125 44.863281 C 159.007812 44.839844 158.984375 44.816406 158.945312 44.800781 Z M 158.945312 44.800781 "/>
<path style=" stroke:none;fill-rule:nonzero;fill:rgb(43.921569%,43.529412%,43.529412%);fill-opacity:1;" d="M 158.496094 42.332031 C 158.230469 42.332031 158.046875 42.375 157.949219 42.46875 C 157.851562 42.558594 157.796875 42.730469 157.796875 42.984375 C 157.796875 43.230469 157.847656 43.394531 157.945312 43.492188 C 158.042969 43.578125 158.222656 43.625 158.480469 43.625 C 158.75 43.625 158.9375 43.578125 159.03125 43.484375 C 159.136719 43.394531 159.183594 43.222656 159.183594 42.972656 C 159.183594 42.722656 159.136719 42.554688 159.039062 42.46875 C 158.945312 42.375 158.761719 42.332031 158.496094 42.332031 Z M 158.496094 42.332031 "/>
<path style=" stroke:none;fill-rule:nonzero;fill:rgb(43.921569%,43.529412%,43.529412%);fill-opacity:1;" d="M 165.527344 45.222656 C 165.34375 45.035156 165.089844 44.898438 164.78125 44.800781 C 164.472656 44.703125 164.105469 44.65625 163.667969 44.65625 C 163.429688 44.65625 163.195312 44.675781 162.964844 44.71875 C 162.734375 44.757812 162.519531 44.8125 162.324219 44.871094 C 162.132812 44.933594 161.964844 45.003906 161.8125 45.078125 C 161.664062 45.160156 161.558594 45.222656 161.496094 45.277344 C 161.4375 45.335938 161.398438 45.394531 161.382812 45.457031 C 161.363281 45.519531 161.355469 45.605469 161.355469 45.71875 C 161.355469 45.78125 161.359375 45.839844 161.371094 45.894531 C 161.378906 45.949219 161.394531 45.996094 161.414062 46.03125 C 161.433594 46.066406 161.457031 46.089844 161.488281 46.105469 C 161.507812 46.121094 161.546875 46.132812 161.582031 46.132812 C 161.632812 46.132812 161.71875 46.101562 161.832031 46.042969 C 161.941406 45.976562 162.078125 45.90625 162.242188 45.832031 C 162.410156 45.757812 162.601562 45.6875 162.824219 45.621094 C 163.035156 45.5625 163.285156 45.527344 163.5625 45.527344 C 163.816406 45.527344 164.035156 45.558594 164.214844 45.617188 C 164.390625 45.675781 164.53125 45.765625 164.644531 45.882812 C 164.753906 45.992188 164.835938 46.136719 164.882812 46.3125 C 164.9375 46.484375 164.960938 46.6875 164.960938 46.910156 L 164.960938 47.367188 L 164.121094 47.367188 C 163.644531 47.367188 163.21875 47.40625 162.839844 47.488281 C 162.457031 47.570312 162.132812 47.6875 161.875 47.851562 C 161.605469 48.011719 161.410156 48.214844 161.269531 48.457031 C 161.128906 48.699219 161.0625 48.984375 161.0625 49.316406 C 161.0625 49.597656 161.109375 49.847656 161.210938 50.070312 C 161.316406 50.292969 161.453125 50.476562 161.636719 50.628906 C 161.820312 50.785156 162.042969 50.898438 162.300781 50.980469 C 162.558594 51.0625 162.855469 51.101562 163.171875 51.101562 C 163.539062 51.101562 163.890625 51.023438 164.214844 50.875 C 164.546875 50.71875 164.839844 50.507812 165.109375 50.234375 L 165.109375 50.820312 C 165.109375 50.875 165.121094 50.914062 165.160156 50.9375 C 165.1875 50.964844 165.238281 50.980469 165.3125 50.996094 C 165.378906 51.011719 165.472656 51.019531 165.589844 51.019531 C 165.707031 51.019531 165.804688 51.011719 165.867188 50.996094 C 165.929688 50.980469 165.980469 50.964844 166.015625 50.9375 C 166.046875 50.914062 166.074219 50.875 166.074219 50.820312 L 166.074219 46.867188 C 166.074219 46.503906 166.027344 46.1875 165.941406 45.914062 C 165.863281 45.632812 165.71875 45.40625 165.527344 45.222656 Z M 164.960938 49.386719 C 164.683594 49.679688 164.421875 49.898438 164.171875 50.042969 C 163.921875 50.1875 163.644531 50.257812 163.351562 50.257812 C 162.988281 50.257812 162.707031 50.167969 162.507812 49.988281 C 162.304688 49.804688 162.203125 49.566406 162.203125 49.261719 C 162.203125 49.082031 162.242188 48.929688 162.308594 48.789062 C 162.378906 48.65625 162.492188 48.539062 162.640625 48.441406 C 162.789062 48.339844 162.976562 48.265625 163.203125 48.21875 C 163.429688 48.167969 163.695312 48.140625 164 48.140625 L 164.960938 48.140625 Z M 164.960938 49.386719 "/>
<path style=" stroke:none;fill-rule:nonzero;fill:rgb(43.921569%,43.529412%,43.529412%);fill-opacity:1;" d="M 169.566406 42.015625 C 169.550781 41.992188 169.519531 41.972656 169.484375 41.953125 C 169.441406 41.933594 169.382812 41.921875 169.3125 41.914062 C 169.238281 41.90625 169.148438 41.90625 169.03125 41.90625 C 168.925781 41.90625 168.832031 41.90625 168.757812 41.914062 C 168.6875 41.921875 168.632812 41.9375 168.585938 41.953125 C 168.539062 41.972656 168.511719 41.992188 168.5 42.015625 C 168.480469 42.042969 168.472656 42.078125 168.472656 42.109375 L 168.472656 50.8125 C 168.472656 50.847656 168.480469 50.875 168.5 50.898438 C 168.515625 50.925781 168.539062 50.945312 168.585938 50.960938 C 168.632812 50.980469 168.6875 50.992188 168.757812 51 C 168.832031 51.007812 168.921875 51.015625 169.03125 51.015625 C 169.148438 51.015625 169.238281 51.007812 169.3125 51 C 169.378906 50.992188 169.4375 50.976562 169.484375 50.960938 C 169.519531 50.945312 169.550781 50.925781 169.566406 50.898438 C 169.589844 50.875 169.597656 50.847656 169.597656 50.8125 L 169.597656 42.109375 C 169.597656 42.074219 169.589844 42.042969 169.566406 42.015625 Z M 169.566406 42.015625 "/>
<path style=" stroke:none;fill-rule:nonzero;fill:url(#radial0);" d="M 39.949219 19.652344 C 39.953125 29.6875 31.476562 37.828125 21.023438 37.828125 C 10.570312 37.832031 2.09375 29.695312 2.089844 19.660156 C 2.089844 19.65625 2.089844 19.65625 2.089844 19.652344 C 2.089844 9.617188 10.5625 1.480469 21.015625 1.476562 C 31.472656 1.476562 39.949219 9.609375 39.949219 19.648438 C 39.949219 19.648438 39.949219 19.652344 39.949219 19.652344 Z M 39.949219 19.652344 "/>
<path style=" stroke:none;fill-rule:nonzero;fill:url(#linear0);" d="M 38.945312 19.035156 C 38.945312 28.308594 31.117188 35.824219 21.457031 35.828125 C 11.800781 35.828125 3.96875 28.3125 3.96875 19.039062 C 3.96875 19.039062 3.96875 19.035156 3.96875 19.03125 C 3.964844 9.761719 11.796875 2.242188 21.453125 2.242188 C 31.113281 2.238281 38.945312 9.753906 38.945312 19.027344 C 38.945312 19.03125 38.945312 19.03125 38.945312 19.035156 Z M 38.945312 19.035156 "/>
<path style=" stroke:none;fill-rule:nonzero;fill:url(#linear1);" d="M 36.761719 16.636719 C 36.765625 24.015625 30.53125 30 22.84375 30.003906 C 15.152344 30.003906 8.917969 24.023438 8.917969 16.640625 C 8.917969 16.636719 8.917969 16.636719 8.917969 16.636719 C 8.914062 9.253906 15.144531 3.269531 22.835938 3.265625 C 30.527344 3.265625 36.761719 9.246094 36.761719 16.628906 C 36.761719 16.632812 36.761719 16.636719 36.761719 16.636719 Z M 36.761719 16.636719 "/>
<path style=" stroke:none;fill-rule:nonzero;fill:url(#linear2);" d="M 33.21875 5.761719 C 34.304688 14.039062 32.773438 22.246094 29.117188 29.445312 C 28.3125 31.835938 27.285156 34.152344 26.054688 36.367188 C 32.503906 28.09375 35.710938 17.640625 34.609375 7.003906 C 34.167969 6.566406 33.703125 6.152344 33.21875 5.761719 Z M 21.023438 1.484375 C 20.769531 1.484375 20.511719 1.488281 20.261719 1.5 C 23.3125 7.132812 25.035156 13.53125 25.035156 20.320312 C 25.035156 26.585938 23.566406 32.519531 20.941406 37.828125 C 20.96875 37.828125 20.996094 37.828125 21.023438 37.828125 C 21.558594 37.828125 22.09375 37.804688 22.621094 37.757812 C 26.976562 28.578125 27.933594 17.875 24.484375 7.503906 C 23.789062 5.414062 22.9375 3.410156 21.949219 1.503906 C 21.640625 1.488281 21.332031 1.484375 21.023438 1.484375 Z M 21.023438 1.484375 "/>
<path style=" stroke:none;fill-rule:nonzero;fill:rgb(100%,100%,100%);fill-opacity:1;" d="M 21.949219 1.503906 C 22.9375 3.410156 23.785156 5.410156 24.484375 7.503906 C 27.929688 17.875 26.972656 28.578125 22.621094 37.757812 C 24.71875 37.589844 26.722656 37.09375 28.570312 36.320312 C 35.414062 30.375 39.167969 21.625 38.472656 12.609375 C 37.554688 10.511719 36.234375 8.617188 34.609375 7.007812 C 35.710938 17.644531 32.503906 28.09375 26.054688 36.367188 C 31.445312 26.675781 32.910156 14.984375 29.15625 3.691406 C 29.097656 3.515625 29.035156 3.339844 28.976562 3.164062 C 26.820312 2.203125 24.449219 1.621094 21.949219 1.503906 Z M 21.949219 1.503906 "/>
<path style=" stroke:none;fill-rule:nonzero;fill:rgb(0%,0%,0%);fill-opacity:1;" d="M 70.933594 12.300781 C 70.75 12.28125 70.492188 12.269531 70.175781 12.269531 C 69.867188 12.269531 69.621094 12.273438 69.433594 12.289062 C 69.246094 12.300781 69.105469 12.324219 69.003906 12.363281 C 68.898438 12.398438 68.828125 12.445312 68.785156 12.511719 C 68.742188 12.574219 68.707031 12.65625 68.675781 12.753906 L 63.101562 27.414062 L 63.078125 27.414062 L 57.347656 12.730469 C 57.308594 12.636719 57.261719 12.5625 57.214844 12.503906 C 57.167969 12.445312 57.101562 12.398438 57.011719 12.363281 C 56.917969 12.328125 56.785156 12.300781 56.613281 12.289062 C 56.445312 12.273438 56.21875 12.269531 55.925781 12.269531 C 55.578125 12.269531 55.300781 12.277344 55.09375 12.296875 C 54.886719 12.316406 54.734375 12.355469 54.648438 12.417969 C 54.558594 12.480469 54.507812 12.570312 54.511719 12.695312 C 54.523438 12.816406 54.5625 12.972656 54.648438 13.171875 L 61.183594 29.386719 C 61.210938 29.457031 61.242188 29.515625 61.28125 29.566406 C 61.316406 29.621094 61.367188 29.660156 61.433594 29.695312 C 61.492188 29.734375 61.566406 29.761719 61.652344 29.785156 C 61.738281 29.808594 61.847656 29.828125 61.96875 29.847656 C 62.09375 29.867188 62.242188 29.875 62.410156 29.882812 C 62.582031 29.882812 62.777344 29.890625 63.003906 29.890625 C 63.304688 29.890625 63.554688 29.882812 63.753906 29.867188 C 63.957031 29.855469 64.121094 29.828125 64.253906 29.792969 C 64.378906 29.753906 64.480469 29.707031 64.550781 29.644531 C 64.625 29.582031 64.679688 29.5 64.722656 29.398438 L 71.246094 13.1875 C 71.328125 12.988281 71.375 12.828125 71.390625 12.710938 C 71.410156 12.589844 71.382812 12.496094 71.320312 12.433594 C 71.242188 12.367188 71.117188 12.324219 70.933594 12.300781 Z M 70.933594 12.300781 "/>
<path style=" stroke:none;fill-rule:nonzero;fill:rgb(0%,0%,0%);fill-opacity:1;" d="M 170.777344 28.980469 L 164.242188 12.765625 C 164.207031 12.695312 164.175781 12.636719 164.136719 12.585938 C 164.101562 12.535156 164.050781 12.492188 163.992188 12.460938 C 163.925781 12.421875 163.855469 12.394531 163.769531 12.367188 C 163.683594 12.347656 163.574219 12.328125 163.453125 12.308594 C 163.328125 12.289062 163.183594 12.277344 163.011719 12.273438 C 162.839844 12.273438 162.644531 12.269531 162.417969 12.269531 C 162.117188 12.269531 161.867188 12.273438 161.664062 12.289062 C 161.464844 12.300781 161.300781 12.324219 161.175781 12.363281 C 161.046875 12.398438 160.945312 12.445312 160.871094 12.511719 C 160.800781 12.574219 160.746094 12.65625 160.699219 12.753906 L 154.179688 28.964844 C 154.101562 29.160156 154.050781 29.324219 154.03125 29.445312 C 154.019531 29.566406 154.039062 29.660156 154.113281 29.722656 C 154.175781 29.785156 154.304688 29.828125 154.488281 29.851562 C 154.671875 29.871094 154.925781 29.886719 155.242188 29.886719 C 155.550781 29.886719 155.800781 29.878906 155.988281 29.863281 C 156.171875 29.851562 156.3125 29.828125 156.417969 29.789062 C 156.523438 29.753906 156.59375 29.707031 156.636719 29.640625 C 156.683594 29.578125 156.71875 29.496094 156.742188 29.398438 L 162.324219 14.738281 L 162.34375 14.738281 L 168.070312 29.425781 C 168.113281 29.515625 168.160156 29.585938 168.207031 29.644531 C 168.246094 29.707031 168.320312 29.753906 168.414062 29.789062 C 168.507812 29.828125 168.636719 29.851562 168.804688 29.863281 C 168.976562 29.878906 169.207031 29.886719 169.496094 29.886719 C 169.847656 29.886719 170.125 29.871094 170.328125 29.855469 C 170.539062 29.835938 170.683594 29.800781 170.777344 29.738281 C 170.867188 29.671875 170.914062 29.578125 170.910156 29.460938 C 170.902344 29.339844 170.863281 29.179688 170.777344 28.980469 Z M 170.777344 28.980469 "/>
<path style=" stroke:none;fill-rule:nonzero;fill:rgb(0%,0%,0%);fill-opacity:1;" d="M 78.554688 12.382812 C 78.449219 12.355469 78.316406 12.324219 78.144531 12.300781 C 77.972656 12.28125 77.761719 12.269531 77.5 12.269531 C 77.269531 12.269531 77.066406 12.28125 76.894531 12.300781 C 76.722656 12.324219 76.589844 12.355469 76.480469 12.382812 C 76.371094 12.414062 76.292969 12.457031 76.246094 12.511719 C 76.203125 12.566406 76.179688 12.628906 76.179688 12.703125 L 76.179688 29.453125 C 76.179688 29.527344 76.195312 29.589844 76.238281 29.644531 C 76.28125 29.695312 76.355469 29.738281 76.457031 29.769531 C 76.5625 29.800781 76.699219 29.828125 76.875 29.851562 C 77.046875 29.871094 77.257812 29.886719 77.503906 29.886719 C 77.765625 29.886719 77.976562 29.871094 78.148438 29.851562 C 78.320312 29.828125 78.453125 29.800781 78.554688 29.769531 C 78.660156 29.738281 78.730469 29.695312 78.773438 29.644531 C 78.816406 29.589844 78.832031 29.527344 78.832031 29.453125 L 78.832031 12.703125 C 78.832031 12.628906 78.8125 12.566406 78.773438 12.511719 C 78.730469 12.460938 78.660156 12.414062 78.554688 12.382812 Z M 78.554688 12.382812 "/>
<path style=" stroke:none;fill-rule:nonzero;fill:rgb(0%,0%,0%);fill-opacity:1;" d="M 95.046875 21.785156 C 94.621094 21.414062 94.132812 21.089844 93.585938 20.8125 C 93.039062 20.535156 92.480469 20.285156 91.917969 20.054688 C 91.351562 19.828125 90.792969 19.597656 90.246094 19.375 C 89.699219 19.152344 89.210938 18.902344 88.785156 18.632812 C 88.355469 18.359375 88.015625 18.050781 87.757812 17.703125 C 87.507812 17.351562 87.375 16.929688 87.375 16.445312 C 87.375 16.117188 87.441406 15.800781 87.574219 15.5 C 87.707031 15.207031 87.910156 14.949219 88.179688 14.738281 C 88.445312 14.515625 88.785156 14.34375 89.199219 14.21875 C 89.605469 14.089844 90.09375 14.019531 90.644531 14.019531 C 91.246094 14.019531 91.785156 14.089844 92.265625 14.21875 C 92.746094 14.34375 93.15625 14.488281 93.511719 14.648438 C 93.855469 14.804688 94.160156 14.945312 94.398438 15.074219 C 94.640625 15.199219 94.820312 15.261719 94.929688 15.261719 C 95 15.261719 95.066406 15.242188 95.121094 15.199219 C 95.179688 15.160156 95.226562 15.097656 95.257812 15.007812 C 95.285156 14.929688 95.308594 14.820312 95.320312 14.695312 C 95.339844 14.566406 95.351562 14.425781 95.351562 14.261719 C 95.351562 14.09375 95.339844 13.953125 95.335938 13.84375 C 95.316406 13.730469 95.304688 13.644531 95.285156 13.566406 C 95.265625 13.492188 95.238281 13.425781 95.207031 13.378906 C 95.175781 13.328125 95.109375 13.261719 95.015625 13.175781 C 94.917969 13.089844 94.714844 12.980469 94.402344 12.839844 C 94.097656 12.699219 93.742188 12.574219 93.347656 12.460938 C 92.953125 12.347656 92.527344 12.257812 92.074219 12.191406 C 91.632812 12.125 91.183594 12.085938 90.742188 12.085938 C 89.878906 12.085938 89.070312 12.191406 88.324219 12.394531 C 87.574219 12.59375 86.933594 12.890625 86.394531 13.277344 C 85.851562 13.664062 85.433594 14.136719 85.125 14.710938 C 84.820312 15.285156 84.671875 15.933594 84.671875 16.664062 C 84.671875 17.367188 84.796875 17.980469 85.066406 18.488281 C 85.324219 18.992188 85.671875 19.441406 86.09375 19.816406 C 86.515625 20.195312 86.992188 20.523438 87.527344 20.804688 C 88.066406 21.078125 88.617188 21.335938 89.183594 21.5625 C 89.75 21.792969 90.304688 22.019531 90.84375 22.238281 C 91.386719 22.457031 91.871094 22.703125 92.292969 22.96875 C 92.714844 23.230469 93.054688 23.542969 93.308594 23.894531 C 93.5625 24.246094 93.695312 24.667969 93.695312 25.160156 C 93.695312 25.621094 93.605469 26.027344 93.414062 26.386719 C 93.230469 26.75 92.96875 27.050781 92.621094 27.300781 C 92.277344 27.546875 91.863281 27.738281 91.382812 27.871094 C 90.90625 28.007812 90.378906 28.074219 89.800781 28.074219 C 89.042969 28.074219 88.367188 27.996094 87.785156 27.839844 C 87.199219 27.683594 86.703125 27.515625 86.292969 27.335938 C 85.882812 27.15625 85.546875 26.992188 85.28125 26.835938 C 85.015625 26.6875 84.816406 26.609375 84.671875 26.609375 C 84.589844 26.609375 84.515625 26.625 84.457031 26.65625 C 84.394531 26.6875 84.34375 26.742188 84.304688 26.820312 C 84.257812 26.90625 84.230469 27.007812 84.210938 27.140625 C 84.183594 27.273438 84.171875 27.433594 84.171875 27.632812 C 84.171875 27.910156 84.203125 28.132812 84.257812 28.296875 C 84.316406 28.464844 84.410156 28.601562 84.523438 28.710938 C 84.640625 28.820312 84.851562 28.949219 85.160156 29.101562 C 85.464844 29.253906 85.839844 29.402344 86.285156 29.542969 C 86.734375 29.691406 87.242188 29.8125 87.816406 29.910156 C 88.390625 30.011719 89.007812 30.058594 89.679688 30.058594 C 90.636719 30.058594 91.53125 29.949219 92.359375 29.722656 C 93.1875 29.496094 93.914062 29.160156 94.523438 28.71875 C 95.136719 28.269531 95.613281 27.726562 95.957031 27.089844 C 96.304688 26.453125 96.480469 25.726562 96.480469 24.90625 C 96.480469 24.214844 96.34375 23.617188 96.085938 23.105469 C 95.816406 22.601562 95.472656 22.15625 95.046875 21.785156 Z M 95.046875 21.785156 "/>
<path style=" stroke:none;fill-rule:nonzero;fill:rgb(0%,0%,0%);fill-opacity:1;" d="M 104.238281 12.382812 C 104.132812 12.355469 104 12.324219 103.832031 12.300781 C 103.660156 12.28125 103.449219 12.269531 103.191406 12.269531 C 102.957031 12.269531 102.746094 12.28125 102.578125 12.300781 C 102.410156 12.324219 102.273438 12.355469 102.160156 12.382812 C 102.054688 12.414062 101.976562 12.457031 101.929688 12.511719 C 101.882812 12.566406 101.863281 12.628906 101.863281 12.703125 L 101.863281 29.453125 C 101.863281 29.527344 101.882812 29.589844 101.925781 29.644531 C 101.964844 29.695312 102.035156 29.738281 102.140625 29.769531 C 102.242188 29.800781 102.382812 29.828125 102.558594 29.851562 C 102.738281 29.871094 102.945312 29.886719 103.191406 29.886719 C 103.449219 29.886719 103.664062 29.871094 103.832031 29.851562 C 104.003906 29.828125 104.140625 29.800781 104.238281 29.769531 C 104.34375 29.738281 104.414062 29.695312 104.460938 29.644531 C 104.503906 29.589844 104.519531 29.527344 104.519531 29.453125 L 104.519531 12.703125 C 104.519531 12.628906 104.5 12.566406 104.460938 12.511719 C 104.414062 12.460938 104.339844 12.414062 104.238281 12.382812 Z M 104.238281 12.382812 "/>
<path style=" stroke:none;fill-rule:nonzero;fill:rgb(0%,0%,0%);fill-opacity:1;" d="M 126.015625 14.367188 C 125.285156 13.621094 124.375 13.0625 123.285156 12.671875 C 122.191406 12.285156 120.914062 12.089844 119.4375 12.089844 C 117.917969 12.089844 116.578125 12.308594 115.4375 12.734375 C 114.289062 13.160156 113.335938 13.765625 112.574219 14.558594 C 111.808594 15.34375 111.238281 16.296875 110.855469 17.421875 C 110.476562 18.546875 110.289062 19.796875 110.289062 21.175781 C 110.289062 22.613281 110.464844 23.882812 110.808594 24.988281 C 111.160156 26.09375 111.695312 27.019531 112.410156 27.765625 C 113.128906 28.515625 114.035156 29.082031 115.128906 29.476562 C 116.226562 29.867188 117.53125 30.0625 119.035156 30.0625 C 120.558594 30.0625 121.890625 29.847656 123.035156 29.417969 C 124.179688 28.992188 125.128906 28.378906 125.886719 27.585938 C 126.640625 26.792969 127.210938 25.824219 127.59375 24.691406 C 127.972656 23.558594 128.164062 22.289062 128.164062 20.875 C 128.164062 19.464844 127.988281 18.210938 127.632812 17.121094 C 127.28125 16.023438 126.738281 15.105469 126.015625 14.367188 Z M 125.050781 23.71875 C 124.839844 24.5625 124.496094 25.308594 124.015625 25.949219 C 123.53125 26.59375 122.890625 27.105469 122.105469 27.480469 C 121.308594 27.859375 120.332031 28.046875 119.167969 28.046875 C 117.996094 28.046875 117.019531 27.875 116.242188 27.53125 C 115.464844 27.183594 114.84375 26.699219 114.382812 26.070312 C 113.917969 25.449219 113.585938 24.703125 113.390625 23.839844 C 113.195312 22.976562 113.101562 22.035156 113.101562 21.007812 C 113.101562 20.082031 113.203125 19.195312 113.417969 18.359375 C 113.628906 17.519531 113.976562 16.785156 114.464844 16.15625 C 114.953125 15.523438 115.589844 15.019531 116.371094 14.640625 C 117.152344 14.261719 118.121094 14.074219 119.273438 14.074219 C 120.421875 14.074219 121.394531 14.253906 122.175781 14.597656 C 122.957031 14.953125 123.582031 15.433594 124.050781 16.0625 C 124.519531 16.6875 124.855469 17.425781 125.050781 18.277344 C 125.253906 19.128906 125.355469 20.046875 125.355469 21.035156 C 125.355469 21.980469 125.253906 22.871094 125.050781 23.71875 Z M 125.050781 23.71875 "/>
<path style=" stroke:none;fill-rule:nonzero;fill:rgb(0%,0%,0%);fill-opacity:1;" d="M 148.792969 12.421875 C 148.691406 12.382812 148.554688 12.355469 148.386719 12.335938 C 148.210938 12.320312 148 12.304688 147.761719 12.304688 C 147.488281 12.304688 147.269531 12.316406 147.101562 12.335938 C 146.929688 12.355469 146.796875 12.382812 146.695312 12.421875 C 146.59375 12.464844 146.519531 12.511719 146.476562 12.566406 C 146.429688 12.617188 146.410156 12.675781 146.410156 12.742188 L 146.410156 22.207031 C 146.410156 22.921875 146.414062 23.660156 146.414062 24.425781 C 146.421875 25.195312 146.433594 25.9375 146.453125 26.648438 L 146.4375 26.648438 C 146.199219 26.222656 145.953125 25.800781 145.710938 25.386719 C 145.46875 24.964844 145.21875 24.539062 144.972656 24.109375 C 144.726562 23.679688 144.464844 23.242188 144.199219 22.796875 C 143.929688 22.347656 143.648438 21.894531 143.363281 21.425781 L 138.667969 13.765625 C 138.5 13.488281 138.339844 13.257812 138.183594 13.070312 C 138.03125 12.890625 137.871094 12.742188 137.703125 12.640625 C 137.542969 12.535156 137.351562 12.464844 137.148438 12.417969 C 136.9375 12.371094 136.6875 12.351562 136.378906 12.351562 L 135.070312 12.351562 C 134.792969 12.351562 134.539062 12.425781 134.304688 12.582031 C 134.070312 12.734375 133.949219 12.988281 133.949219 13.351562 L 133.949219 29.453125 C 133.949219 29.515625 133.972656 29.578125 134.015625 29.636719 C 134.0625 29.691406 134.128906 29.742188 134.226562 29.769531 C 134.324219 29.800781 134.460938 29.832031 134.625 29.855469 C 134.796875 29.875 135.007812 29.890625 135.269531 29.890625 C 135.535156 29.890625 135.746094 29.875 135.914062 29.855469 C 136.085938 29.828125 136.222656 29.800781 136.320312 29.769531 C 136.425781 29.742188 136.5 29.695312 136.542969 29.636719 C 136.585938 29.578125 136.609375 29.515625 136.609375 29.453125 L 136.609375 18.921875 C 136.609375 18.253906 136.601562 17.585938 136.589844 16.914062 C 136.582031 16.238281 136.566406 15.578125 136.542969 14.929688 L 136.570312 14.929688 C 136.859375 15.460938 137.152344 16.003906 137.480469 16.570312 C 137.804688 17.132812 138.125 17.667969 138.441406 18.183594 L 144.546875 28.109375 C 144.753906 28.464844 144.953125 28.746094 145.140625 28.972656 C 145.324219 29.199219 145.511719 29.375 145.703125 29.503906 C 145.886719 29.636719 146.085938 29.726562 146.289062 29.773438 C 146.496094 29.824219 146.738281 29.847656 147.019531 29.847656 L 147.894531 29.847656 C 148.03125 29.847656 148.175781 29.832031 148.316406 29.792969 C 148.453125 29.757812 148.578125 29.699219 148.6875 29.617188 C 148.800781 29.535156 148.890625 29.433594 148.960938 29.308594 C 149.027344 29.183594 149.066406 29.03125 149.066406 28.847656 L 149.066406 12.746094 C 149.066406 12.679688 149.046875 12.625 148.996094 12.570312 C 148.960938 12.511719 148.890625 12.464844 148.792969 12.421875 Z M 148.792969 12.421875 "/>
</g>
</svg>
